<?xml version="1.0" encoding="UTF-8"?>
<svg id="Capa_2" data-name="Capa 2" xmlns="http://www.w3.org/2000/svg" viewBox="0 0 109.53 63.76">
  <defs>
    <style>
      .cls-1 {
        fill: #ffc629;
      }
    </style>
  </defs>
  <g id="featurs">
    <g>
      <path class="cls-1" d="m17.26,52.43h-8.79v-2.04h6.75v-.35c0-.86-.64-1.61-1.5-1.73l-5.39-.74.28-2.02,5.4.74c1.86.27,3.25,1.88,3.25,3.75v2.39Z"/>
      <path class="cls-1" d="m45.73,63.7h-1.82c-2.36,0-4.27-1.92-4.27-4.27v-.8H14.23v.8c0,2.36-1.92,4.27-4.27,4.27h-1.82c-2.36,0-4.27-1.92-4.27-4.27v-14.37l-2.67-.98c-.71-.26-1.19-.94-1.19-1.7v-2.66c0-1,.81-1.81,1.81-1.81h3.78c.7,0,1.35-.38,1.68-1l3.76-6.9c.91-1.68,2.67-2.72,4.58-2.72h22.63c1.91,0,3.67,1.04,4.58,2.72l3.76,6.9c.34.62.98,1,1.68,1h3.78c1,0,1.81.81,1.81,1.81v2.66c0,.76-.48,1.44-1.19,1.7l-2.67.98v14.37c0,2.36-1.92,4.27-4.27,4.27Zm-33.54-7.11h29.49v2.84c0,1.23,1,2.24,2.24,2.24h1.82c1.23,0,2.24-1,2.24-2.24v-15.8l3.86-1.41v-2.28h-3.55c-1.45,0-2.78-.79-3.47-2.06l-3.76-6.9c-.56-1.02-1.63-1.66-2.79-1.66H15.62c-1.17,0-2.24.64-2.79,1.66l-3.76,6.9c-.69,1.27-2.03,2.06-3.47,2.06h-3.55v2.28l3.86,1.41v15.8c0,1.23,1,2.24,2.24,2.24h1.82c1.23,0,2.24-1,2.24-2.24v-2.84Z"/>
      <path class="cls-1" d="m43.75,40H10.12l4.34-7.95c.38-.7,1.11-1.13,1.9-1.13h21.15c.79,0,1.52.43,1.9,1.13l4.34,7.95Zm-30.2-2.04h26.76l-2.69-4.94s-.07-.07-.11-.07h-21.15s-.09.03-.11.07l-2.69,4.94Z"/>
      <path class="cls-1" d="m45.4,52.43h-8.79v-2.39c0-1.87,1.39-3.48,3.24-3.75l5.41-.74.28,2.02-5.4.74c-.85.12-1.49.87-1.49,1.73v.35h6.75v2.04Z"/>
      <rect class="cls-1" x="21.25" y="50.52" width="11.36" height="2.04"/>
      <polygon class="cls-1" points="33.63 51.65 31.6 51.42 31.99 48.06 21.88 48.06 22.27 51.42 20.24 51.65 19.59 46.02 34.28 46.02 33.63 51.65"/>
      <rect class="cls-1" x="9.8" y="56.58" width="3.4" height="2.04"/>
      <rect class="cls-1" x="40.66" y="56.58" width="3.4" height="2.04"/>
      <path class="cls-1" d="m38.84,25.65c-.42,0-.84-.11-1.21-.33l-1.94-1.12c-.56-.33-.97-.85-1.13-1.48-.17-.63-.08-1.28.24-1.85l.64-1.1c-.85-1-1.51-2.15-1.95-3.38h-1.28c-1.34,0-2.44-1.09-2.44-2.44v-2.24c0-1.34,1.09-2.44,2.44-2.44h1.28c.44-1.24,1.1-2.39,1.95-3.39l-.64-1.1c-.33-.56-.41-1.22-.24-1.85.17-.63.57-1.15,1.13-1.48l1.94-1.12c.56-.33,1.22-.41,1.85-.24.63.17,1.15.57,1.48,1.13l.64,1.11c1.29-.24,2.61-.24,3.9,0l.64-1.11c.67-1.16,2.16-1.56,3.33-.89l1.94,1.12c1.16.67,1.56,2.16.89,3.33l-.64,1.1c.85,1,1.51,2.15,1.95,3.39h1.28c1.34,0,2.44,1.09,2.44,2.44v2.24c0,1.34-1.09,2.44-2.44,2.44h-1.28c-.44,1.24-1.1,2.39-1.95,3.38l.64,1.1c.67,1.16.27,2.66-.89,3.33l-1.94,1.12c-.56.33-1.22.41-1.85.24-.63-.17-1.15-.57-1.48-1.13l-.64-1.11c-1.29.24-2.61.24-3.9,0l-.64,1.11c-.32.56-.85.97-1.48,1.13-.21.06-.42.08-.63.08Zm7.66-4.67l1.4,2.43c.07.12.18.17.24.19.06.01.18.03.3-.04l1.94-1.12c.19-.11.25-.35.15-.54l-1.4-2.43.55-.55c1.05-1.06,1.81-2.37,2.2-3.81l.2-.75h2.81c.22,0,.4-.18.4-.4v-2.24c0-.22-.18-.4-.4-.4h-2.81l-.2-.75c-.39-1.44-1.15-2.76-2.2-3.81l-.55-.55,1.4-2.43c.11-.19.04-.43-.15-.54l-1.94-1.12c-.19-.11-.43-.04-.54.15l-1.4,2.43-.75-.2c-1.44-.38-2.96-.38-4.4,0l-.75.2-1.4-2.43c-.07-.12-.18-.17-.24-.19-.06-.02-.18-.03-.3.04l-1.94,1.12c-.12.07-.17.18-.18.24s-.03.18.04.3l1.4,2.43-.55.55c-1.05,1.06-1.81,2.37-2.2,3.81l-.2.75h-2.81c-.22,0-.4.18-.4.4v2.24c0,.22.18.4.4.4h2.81l.2.75c.39,1.44,1.15,2.76,2.2,3.81l.55.55-1.4,2.43c-.07.12-.06.24-.04.3s.06.17.18.24l1.94,1.12c.12.07.24.06.3.04.06-.02.17-.06.24-.19l1.4-2.43.75.2c1.44.38,2.96.38,4.4,0l.75-.2Z"/>
      <path class="cls-1" d="m43.54,16.31c-.89,0-1.79-.34-2.47-1.02-1.36-1.36-1.36-3.58,0-4.94,1.36-1.36,3.58-1.36,4.94,0h0c.66.66,1.02,1.54,1.02,2.47s-.36,1.81-1.02,2.47c-.68.68-1.57,1.02-2.47,1.02Zm0-4.94c-.37,0-.74.14-1.03.42-.57.57-.57,1.49,0,2.06.57.57,1.49.57,2.06,0,.27-.27.43-.64.43-1.03s-.15-.75-.43-1.03h0c-.28-.28-.66-.42-1.03-.42Z"/>
      <rect class="cls-1" x="64.3" y="46.13" width="35.51" height="2.04"/>
      <path class="cls-1" d="m104.24,35.92h-2.04V13.05c0-3.06-2.49-5.55-5.55-5.55h-29.19c-3.06,0-5.55,2.49-5.55,5.55v22.86h-2.04V13.05c0-4.18,3.4-7.59,7.59-7.59h29.19c4.18,0,7.59,3.4,7.59,7.59v22.86Z"/>
      <path class="cls-1" d="m99.98,33.03h-35.85V14.77h35.85v18.26Zm-33.81-2.04h31.77v-14.19h-31.77v14.19Z"/>
      <path class="cls-1" d="m75.37,42.62h-7.67l-1.9-5.69h-4.9v-2.04h14.47c2.13,0,3.86,1.73,3.86,3.86s-1.73,3.86-3.86,3.86Zm-6.2-2.04h6.2c1.01,0,1.82-.82,1.82-1.82s-.82-1.82-1.82-1.82h-7.42l1.22,3.65Z"/>
      <path class="cls-1" d="m96.41,42.62h-7.67c-2.13,0-3.86-1.73-3.86-3.86s1.73-3.86,3.86-3.86h14.47v2.04h-4.9l-1.9,5.69Zm-7.67-5.69c-1.01,0-1.82.82-1.82,1.82s.82,1.82,1.82,1.82h6.2l1.22-3.65h-7.42Z"/>
      <path class="cls-1" d="m102.55,63.76h-3.51c-2.36,0-4.27-1.92-4.27-4.27v-2.49h-25.41v2.49c0,2.36-1.92,4.27-4.27,4.27h-3.51c-2.36,0-4.27-1.92-4.27-4.27v-10.79h16.59v2.04h-14.55v8.75c0,1.23,1,2.24,2.24,2.24h3.51c1.23,0,2.24-1,2.24-2.24v-4.53h29.49v4.53c0,1.23,1,2.24,2.24,2.24h3.51c1.23,0,2.24-1,2.24-2.24v-8.75h-13.97v-2.04h16.01v10.79c0,2.36-1.92,4.27-4.27,4.27Z"/>
      <rect class="cls-1" x="64.93" y="54.96" width="3.4" height="2.04"/>
      <rect class="cls-1" x="95.78" y="54.96" width="3.4" height="2.04"/>
      <rect class="cls-1" x="76.52" y="48.14" width="11.09" height="2.04"/>
      <rect class="cls-1" x="76.52" y="49.98" width="11.09" height="2.04"/>
      <rect class="cls-1" x="76.52" y="51.83" width="11.09" height="2.04"/>
      <path class="cls-1" d="m102.38,48.81c-2.83,0-5.13-2.3-5.13-5.13s2.3-5.13,5.13-5.13,5.13,2.3,5.13,5.13-2.3,5.13-5.13,5.13Zm0-8.23c-1.71,0-3.09,1.39-3.09,3.09s1.39,3.09,3.09,3.09,3.09-1.39,3.09-3.09-1.39-3.09-3.09-3.09Z"/>
      <path class="cls-1" d="m61.74,48.81c-2.83,0-5.13-2.3-5.13-5.13s2.3-5.13,5.13-5.13,5.13,2.3,5.13,5.13-2.3,5.13-5.13,5.13Zm0-8.23c-1.71,0-3.09,1.39-3.09,3.09s1.39,3.09,3.09,3.09,3.09-1.39,3.09-3.09-1.39-3.09-3.09-3.09Z"/>
      <path class="cls-1" d="m109.53,47.99h-2.04v-9.08c0-1.09-.89-1.98-1.98-1.98h-2.29v-2.04h2.29c2.22,0,4.02,1.8,4.02,4.02v9.08Z"/>
      <path class="cls-1" d="m56.63,47.99h-2.04v-9.08c0-2.22,1.8-4.02,4.02-4.02h2.29v2.04h-2.29c-1.09,0-1.98.89-1.98,1.98v9.08Z"/>
    </g>
  </g>
</svg>