<?xml version="1.0" encoding="UTF-8"?>
<svg id="Capa_2" data-name="Capa 2" xmlns="http://www.w3.org/2000/svg" viewBox="0 0 93.98 60.81">
  <defs>
    <style>
      .cls-1 {
        fill: #414141;
      }
    </style>
  </defs>
  <g id="featurs">
    <g>
      <g>
        <g>
          <path class="cls-1" d="m92,37.59h-31.66c-.41,0-.75-.34-.75-.75s.34-.75.75-.75h31.66c.41,0,.75.34.75.75s-.34.75-.75.75Z"/>
          <g>
            <path class="cls-1" d="m59.36,20.69c-1.59,0-2.87-1.29-2.87-2.87s1.29-2.87,2.87-2.87,2.87,1.29,2.87,2.87-1.29,2.87-2.87,2.87Zm0-4c-.62,0-1.12.5-1.12,1.12s.5,1.12,1.12,1.12,1.12-.5,1.12-1.12-.5-1.12-1.12-1.12Z"/>
            <path class="cls-1" d="m63.98,20.69c-.43,0-.84-.09-1.23-.28l.75-1.58c.15.07.32.11.48.11.62,0,1.12-.5,1.12-1.12s-.5-1.12-1.12-1.12c-.17,0-.33.04-.48.11l-.75-1.58c.39-.19.81-.28,1.23-.28,1.59,0,2.87,1.29,2.87,2.87s-1.29,2.87-2.87,2.87Z"/>
          </g>
          <path class="cls-1" d="m60.92,29.21h-3.64c-.48,0-.88-.39-.88-.88s.39-.88.88-.88h3.64c.48,0,.88.39.88.88s-.39.88-.88.88Z"/>
          <path class="cls-1" d="m67.81,29.21h-3.64c-.48,0-.88-.39-.88-.88s.39-.88.88-.88h3.64c.48,0,.88.39.88.88s-.39.88-.88.88Z"/>
          <path class="cls-1" d="m74.69,29.21h-3.64c-.48,0-.88-.39-.88-.88s.39-.88.88-.88h3.64c.48,0,.88.39.88.88s-.39.88-.88.88Z"/>
          <path class="cls-1" d="m81.58,29.21h-3.64c-.48,0-.88-.39-.88-.88s.39-.88.88-.88h3.64c.48,0,.88.39.88.88s-.39.88-.88.88Z"/>
          <path class="cls-1" d="m82.19,33.88h-25.52c-2.17,0-3.94-1.77-3.94-3.94v-13.62c0-2.17,1.77-3.94,3.94-3.94h25.52c2.17,0,3.94,1.77,3.94,3.94v13.62c0,2.17-1.77,3.94-3.94,3.94Zm-25.52-19.76c-1.21,0-2.19.98-2.19,2.19v13.62c0,1.21.98,2.19,2.19,2.19h25.52c1.21,0,2.19-.98,2.19-2.19v-13.62c0-1.21-.98-2.19-2.19-2.19h-25.52Z"/>
          <path class="cls-1" d="m89.88,40.63h-27.4c-1.65,0-3-1.35-3-3v-4.62c0-.48.39-.88.88-.88s.88.39.88.88v4.62c0,.69.56,1.25,1.25,1.25h27.4c.69,0,1.25-.56,1.25-1.25v-15.5c0-.69-.56-1.25-1.25-1.25h-4.62c-.48,0-.88-.39-.88-.88s.39-.88.88-.88h4.62c1.65,0,3,1.35,3,3v15.5c0,1.65-1.35,3-3,3Z"/>
          <path class="cls-1" d="m80.44,20.69h-3.11c-1.11,0-2.01-.9-2.01-2.01v-1.72c0-1.11.9-2.01,2.01-2.01h3.11c1.11,0,2.01.9,2.01,2.01v1.72c0,1.11-.9,2.01-2.01,2.01Zm-3.11-4c-.15,0-.26.12-.26.26v1.72c0,.15.12.26.26.26h3.11c.15,0,.26-.12.26-.26v-1.72c0-.15-.12-.26-.26-.26h-3.11Z"/>
        </g>
        <path class="cls-1" d="m89.48,15.88c-.48,0-.88-.39-.88-.88,0-3.24-2.64-5.88-5.88-5.88-.48,0-.88-.39-.88-.88s.39-.88.88-.88c4.21,0,7.63,3.42,7.63,7.63,0,.48-.39.88-.88.88Z"/>
        <path class="cls-1" d="m93.1,16.39c-.48,0-.88-.39-.88-.88,0-5.52-4.49-10.01-10.01-10.01-.48,0-.88-.39-.88-.88s.39-.88.88-.88c6.49,0,11.76,5.28,11.76,11.76,0,.48-.39.88-.88.88Z"/>
      </g>
      <g>
        <path class="cls-1" d="m74.41,13.42h2.61v-6.88c0-1.65-.59-3.14-1.56-4.28-1.19-1.39-2.96-2.25-4.97-2.25H13.21c-3.66,0-6.54,2.88-6.54,6.54v41.59H1.31c-.78,0-1.31.52-1.31,1.31v3.79c0,4.18,3.4,7.58,7.58,7.58h68.53c4.18,0,7.58-3.4,7.58-7.58v-3.79c0-.78-.52-1.44-1.31-1.44h0s-5.36,0-5.36,0v-8.33h-2.61v8.46H9.29V6.54c0-2.22,1.7-3.92,3.92-3.92h57.28c1.19,0,2.22.48,2.93,1.27.62.69.99,1.61.99,2.65v6.88Zm6.67,39.67c0,2.75-2.22,4.97-4.97,4.97H7.59c-2.75,0-4.97-2.22-4.97-4.97v-2.48h78.47v2.48Z"/>
        <path class="cls-1" d="m35.57,55.71h12.55c.78,0,1.31-.52,1.31-1.31s-.52-1.31-1.31-1.31h-12.55c-.78,0-1.31.52-1.31,1.31s.52,1.31,1.31,1.31Z"/>
      </g>
    </g>
  </g>
</svg>