<?xml version="1.0" encoding="UTF-8"?>
<svg id="Capa_2" data-name="Capa 2" xmlns="http://www.w3.org/2000/svg" viewBox="0 0 96.77 66.24">
  <defs>
    <style>
      .cls-1 {
        fill: #ffc629;
      }
    </style>
  </defs>
  <g id="featurs">
    <g>
      <path class="cls-1" d="m23.79,65.99c-.05,0-.11,0-.16-.01-.56-.09-.94-.61-.85-1.16l5.61-35.82c.09-.56.61-.94,1.16-.85.56.09.94.61.85,1.16l-5.61,35.82c-.08.5-.51.86-1.01.86Z"/>
      <path class="cls-1" d="m30.81,22s-.1,0-.15-.01c-.56-.08-.94-.6-.86-1.15l2.79-19.39c.08-.56.59-.95,1.15-.86.56.08.94.6.86,1.15l-2.79,19.39c-.07.51-.51.87-1.01.87Z"/>
      <path class="cls-1" d="m40.4,65.99s-.02,0-.04,0c-.56-.02-1-.49-.98-1.05l1.25-35.82c.02-.56.51-1,1.05-.98.56.02,1,.49.98,1.05l-1.25,35.82c-.02.55-.47.98-1.02.98Z"/>
      <path class="cls-1" d="m41.96,22s-.02,0-.03,0c-.56-.02-1-.49-.99-1.05l.62-19.39c.02-.56.47-1.02,1.05-.99.56.02,1,.49.99,1.05l-.62,19.39c-.02.55-.47.99-1.02.99Z"/>
      <path class="cls-1" d="m72.98,65.99c-.49,0-.93-.36-1.01-.86l-5.61-35.82c-.09-.56.29-1.08.85-1.16.56-.09,1.08.29,1.16.85l5.61,35.82c.09.56-.29,1.08-.85,1.16-.05,0-.11.01-.16.01Z"/>
      <path class="cls-1" d="m65.96,22c-.5,0-.93-.37-1.01-.87l-2.79-19.39c-.08-.56.31-1.07.86-1.15.56-.08,1.07.31,1.15.86l2.79,19.39c.08.56-.31,1.07-.86,1.15-.05,0-.1.01-.15.01Z"/>
      <path class="cls-1" d="m56.38,65.99c-.55,0-1-.43-1.02-.98l-1.25-35.82c-.02-.56.42-1.03.98-1.05.57-.02,1.03.42,1.05.98l1.25,35.82c.02.56-.42,1.03-.98,1.05-.01,0-.02,0-.04,0Z"/>
      <path class="cls-1" d="m54.82,22c-.55,0-1-.44-1.02-.99l-.62-19.39c-.02-.56.42-1.03.99-1.05.56-.03,1.03.42,1.05.99l.62,19.39c.02.56-.42,1.03-.99,1.05-.01,0-.02,0-.03,0Z"/>
      <path class="cls-1" d="m95.75,22H1.02c-.56,0-1.02-.46-1.02-1.02s.46-1.02,1.02-1.02h94.73c.56,0,1.02.46,1.02,1.02s-.46,1.02-1.02,1.02Z"/>
      <path class="cls-1" d="m86.95,40.59h-8.85v-3.77c0-3.67-2.98-6.65-6.65-6.65H25.33c-3.67,0-6.65,2.98-6.65,6.65v3.77h-8.85v-3.77c0-3.67-2.98-6.65-6.65-6.65H1.02c-.56,0-1.02-.46-1.02-1.02s.46-1.02,1.02-1.02h2.16c4.79,0,8.69,3.9,8.69,8.69v1.73h4.77v-1.73c0-4.79,3.9-8.69,8.69-8.69h46.12c4.79,0,8.69,3.9,8.69,8.69v1.73h4.77v-1.73c0-4.79,3.9-8.69,8.69-8.69h2.16c.56,0,1.02.46,1.02,1.02s-.46,1.02-1.02,1.02h-2.16c-3.67,0-6.65,2.98-6.65,6.65v3.77Z"/>
      <path class="cls-1" d="m32.06,66.24s-.07,0-.1,0c-.56-.05-.97-.55-.92-1.11l.31-3.25c.05-.56.56-.98,1.11-.92.56.05.97.55.92,1.11l-.31,3.25c-.05.53-.5.92-1.01.92Z"/>
      <path class="cls-1" d="m33.25,55.69s-.07,0-.1,0c-.56-.06-.97-.55-.91-1.12l.22-2.17c.06-.56.55-.98,1.12-.91.56.06.97.55.91,1.12l-.22,2.17c-.05.53-.5.92-1.01.92Z"/>
      <path class="cls-1" d="m34.15,46.43s-.07,0-.1,0c-.56-.06-.97-.55-.91-1.12l.11-1.08c.06-.56.56-.98,1.12-.91.56.06.97.55.91,1.12l-.11,1.08c-.05.53-.5.92-1.01.92Z"/>
      <path class="cls-1" d="m64.71,66.24c-.52,0-.96-.39-1.01-.92l-.31-3.25c-.05-.56.36-1.06.92-1.11.55-.06,1.06.36,1.11.92l.31,3.25c.05.56-.36,1.06-.92,1.11-.03,0-.07,0-.1,0Z"/>
      <path class="cls-1" d="m63.53,55.69c-.52,0-.96-.39-1.01-.92l-.22-2.17c-.06-.56.35-1.06.91-1.12.56-.07,1.06.35,1.12.91l.22,2.17c.06.56-.35,1.06-.91,1.12-.03,0-.07,0-.1,0Z"/>
      <path class="cls-1" d="m62.62,46.43c-.52,0-.96-.39-1.01-.92l-.11-1.08c-.06-.56.35-1.06.91-1.12.56-.06,1.06.35,1.12.91l.11,1.08c.06.56-.35,1.06-.91,1.12-.03,0-.07,0-.1,0Z"/>
      <path class="cls-1" d="m21.79,9.73c-.56,0-1.02-.45-1.02-1.01v-2c0-3.71,3.01-6.72,6.72-6.72h41.61c3.7,0,6.72,3.01,6.72,6.72v1.99c0,.56-.46,1.02-1.02,1.02s-1.02-.46-1.02-1.02v-1.99c0-2.58-2.1-4.68-4.68-4.68H27.49c-2.58,0-4.68,2.1-4.68,4.68v2c0,.56-.46,1.01-1.02,1.01Z"/>
    </g>
  </g>
</svg>