<?xml version="1.0" encoding="UTF-8"?>
<svg id="Capa_2" data-name="Capa 2" xmlns="http://www.w3.org/2000/svg" viewBox="0 0 60.79 68.61">
  <defs>
    <style>
      .cls-1 {
        fill: #ffc629;
      }
    </style>
  </defs>
  <g id="featurs">
    <g>
      <path class="cls-1" d="m30.97,6.01h-9.9c-.56,0-1.02-.46-1.02-1.02s.46-1.02,1.02-1.02h9.9c.56,0,1.02.46,1.02,1.02s-.46,1.02-1.02,1.02Z"/>
      <path class="cls-1" d="m31.45,68.61H4.97c-2.74,0-4.97-2.23-4.97-4.97V4.97C0,2.23,2.23,0,4.97,0h42.1c2.74,0,4.97,2.23,4.97,4.97v18.8c0,.56-.46,1.02-1.02,1.02s-1.02-.46-1.02-1.02V4.97c0-1.62-1.32-2.93-2.93-2.93H4.97c-1.62,0-2.93,1.32-2.93,2.93v58.66c0,1.62,1.32,2.93,2.93,2.93h26.48c.56,0,1.02.46,1.02,1.02s-.46,1.02-1.02,1.02Z"/>
      <path class="cls-1" d="m30.97,64.64h-9.9c-.56,0-1.02-.46-1.02-1.02s.46-1.02,1.02-1.02h9.9c.56,0,1.02.46,1.02,1.02s-.46,1.02-1.02,1.02Z"/>
      <path class="cls-1" d="m51.03,9.98H1.02c-.56,0-1.02-.46-1.02-1.02s.46-1.02,1.02-1.02h50.01c.56,0,1.02.46,1.02,1.02s-.46,1.02-1.02,1.02Z"/>
      <path class="cls-1" d="m30.97,60.67H1.02c-.56,0-1.02-.46-1.02-1.02s.46-1.02,1.02-1.02h29.95c.56,0,1.02.46,1.02,1.02s-.46,1.02-1.02,1.02Z"/>
      <path class="cls-1" d="m11.45,22.31h-3.09c-1.59,0-2.89-1.29-2.89-2.89v-3.09c0-1.59,1.29-2.89,2.89-2.89h3.09c1.59,0,2.89,1.29,2.89,2.89v3.09c0,1.59-1.29,2.89-2.89,2.89Zm-3.09-6.83c-.47,0-.85.38-.85.85v3.09c0,.47.38.85.85.85h3.09c.47,0,.85-.38.85-.85v-3.09c0-.47-.38-.85-.85-.85h-3.09Z"/>
      <path class="cls-1" d="m22.03,22.31h-3.09c-1.59,0-2.89-1.29-2.89-2.89v-3.09c0-1.59,1.29-2.89,2.89-2.89h3.09c1.59,0,2.89,1.29,2.89,2.89v3.09c0,1.59-1.29,2.89-2.89,2.89Zm-3.09-6.83c-.47,0-.85.38-.85.85v3.09c0,.47.38.85.85.85h3.09c.47,0,.85-.38.85-.85v-3.09c0-.47-.38-.85-.85-.85h-3.09Z"/>
      <path class="cls-1" d="m32.61,22.31h-3.09c-1.59,0-2.89-1.29-2.89-2.89v-3.09c0-1.59,1.29-2.89,2.89-2.89h3.09c1.59,0,2.89,1.29,2.89,2.89v3.09c0,1.59-1.29,2.89-2.89,2.89Zm-3.09-6.83c-.47,0-.85.38-.85.85v3.09c0,.47.38.85.85.85h3.09c.47,0,.85-.38.85-.85v-3.09c0-.47-.38-.85-.85-.85h-3.09Z"/>
      <path class="cls-1" d="m11.45,33.35h-3.09c-1.59,0-2.89-1.29-2.89-2.89v-3.09c0-1.59,1.29-2.89,2.89-2.89h3.09c1.59,0,2.89,1.29,2.89,2.89v3.09c0,1.59-1.29,2.89-2.89,2.89Zm-3.09-6.83c-.47,0-.85.38-.85.85v3.09c0,.47.38.85.85.85h3.09c.47,0,.85-.38.85-.85v-3.09c0-.47-.38-.85-.85-.85h-3.09Z"/>
      <path class="cls-1" d="m22.03,33.35h-3.09c-1.59,0-2.89-1.29-2.89-2.89v-3.09c0-1.59,1.29-2.89,2.89-2.89h3.09c1.59,0,2.89,1.29,2.89,2.89v3.09c0,1.59-1.29,2.89-2.89,2.89Zm-3.09-6.83c-.47,0-.85.38-.85.85v3.09c0,.47.38.85.85.85h3.09c.47,0,.85-.38.85-.85v-3.09c0-.47-.38-.85-.85-.85h-3.09Z"/>
      <path class="cls-1" d="m11.45,44.39h-3.09c-1.59,0-2.89-1.29-2.89-2.89v-3.09c0-1.59,1.29-2.89,2.89-2.89h3.09c1.59,0,2.89,1.29,2.89,2.89v3.09c0,1.59-1.29,2.89-2.89,2.89Zm-3.09-6.83c-.47,0-.85.38-.85.85v3.09c0,.47.38.85.85.85h3.09c.47,0,.85-.38.85-.85v-3.09c0-.47-.38-.85-.85-.85h-3.09Z"/>
      <path class="cls-1" d="m22.03,44.39h-3.09c-1.59,0-2.89-1.29-2.89-2.89v-3.09c0-1.59,1.29-2.89,2.89-2.89h3.09c1.59,0,2.89,1.29,2.89,2.89v3.09c0,1.59-1.29,2.89-2.89,2.89Zm-3.09-6.83c-.47,0-.85.38-.85.85v3.09c0,.47.38.85.85.85h3.09c.47,0,.85-.38.85-.85v-3.09c0-.47-.38-.85-.85-.85h-3.09Z"/>
      <path class="cls-1" d="m44.3,34.91c-.56,0-1.02-.46-1.02-1.02v-6.59c0-.56.46-1.02,1.02-1.02h2.58c1.98,0,3.6,1.61,3.6,3.6,0,.56-.46,1.02-1.02,1.02s-1.02-.46-1.02-1.02c0-.86-.7-1.56-1.56-1.56h-1.56v5.57c0,.56-.46,1.02-1.02,1.02Z"/>
      <path class="cls-1" d="m56.6,57.2h-11.08c-.56,0-1.02-.46-1.02-1.02s.46-1.02,1.02-1.02h10.26c.12-.5.31-1.2.56-1.98,1.46-4.53,2.26-9.27,2.39-14.1.01-.55.47-.99,1.02-.99,0,0,.02,0,.03,0,.56.01,1.01.48.99,1.05-.13,5.02-.97,9.96-2.48,14.67-.46,1.42-.68,2.56-.69,2.57-.09.48-.51.82-1,.82Z"/>
      <path class="cls-1" d="m40.06,57.2c-.49,0-.92-.35-1-.84,0-.05-.84-4.57-3.76-7.84-.82-.92-1.6-1.99-2.31-3.18-1.67-2.78-2.55-6.01-2.55-9.32,0-2.25,1.83-4.08,4.08-4.08,1.52,0,2.92.86,3.61,2.19v-13.67c0-1.98,1.61-3.6,3.6-3.6s3.6,1.61,3.6,3.6v6.85c0,.56-.46,1.02-1.02,1.02s-1.02-.46-1.02-1.02v-6.85c0-.86-.7-1.56-1.56-1.56s-1.56.7-1.56,1.56v19.09c0,.49-.35.91-.83,1-.48.09-.96-.18-1.14-.64l-1.78-4.63c-.3-.78-1.06-1.31-1.9-1.31-1.12,0-2.04.91-2.04,2.04,0,2.95.78,5.81,2.26,8.28.65,1.08,1.35,2.05,2.08,2.87,3.33,3.72,4.22,8.64,4.25,8.85.1.55-.27,1.08-.83,1.18-.06.01-.12.02-.18.02Z"/>
      <path class="cls-1" d="m54.61,39.07c-.56,0-1.02-.46-1.02-1.02v-6.24c0-.86-.7-1.56-1.56-1.56h-1.56v5.57c0,.56-.46,1.02-1.02,1.02s-1.02-.46-1.02-1.02v-6.59c0-.56.46-1.02,1.02-1.02h2.58c1.98,0,3.6,1.61,3.6,3.6v6.24c0,.56-.46,1.02-1.02,1.02Z"/>
      <path class="cls-1" d="m59.77,40.13c-.56,0-1.02-.46-1.02-1.02v-4.01c0-.86-.7-1.56-1.56-1.56h-2.58c-.56,0-1.02-.46-1.02-1.02s.46-1.02,1.02-1.02h2.58c1.98,0,3.6,1.61,3.6,3.6v4.01c0,.56-.46,1.02-1.02,1.02Z"/>
      <path class="cls-1" d="m58.03,68.61h-20c-.56,0-1.02-.46-1.02-1.02v-7.94c0-.56.46-1.02,1.02-1.02h20c.56,0,1.02.46,1.02,1.02v7.94c0,.56-.46,1.02-1.02,1.02Zm-18.98-2.04h17.96v-5.9h-17.96v5.9Z"/>
      <path class="cls-1" d="m53.58,65.38c-.97,0-1.77-.79-1.77-1.77s.79-1.77,1.77-1.77,1.77.79,1.77,1.77-.79,1.77-1.77,1.77Zm0-2.04c-.15,0-.27.12-.27.27s.12.27.27.27.27-.12.27-.27-.12-.27-.27-.27Z"/>
    </g>
  </g>
</svg>