<?xml version="1.0" encoding="UTF-8"?>
<svg id="Capa_2" data-name="Capa 2" xmlns="http://www.w3.org/2000/svg" viewBox="0 0 76.25 66.92">
  <defs>
    <style>
      .cls-1 {
        fill: #414141;
      }
    </style>
  </defs>
  <g id="featurs">
    <g>
      <path class="cls-1" d="m14.67,29.14h4.81c2.4,0,4.34,1.95,4.34,4.34v3.43h-13.49v-3.43c0-2.4,1.95-4.34,4.34-4.34Z"/>
      <circle class="cls-1" cx="17.08" cy="24.74" r="3.52"/>
      <path class="cls-1" d="m31.72,56.79V16.69c1.4-.99,2.29-2.6,2.29-4.43,0-2.99-2.43-5.42-5.42-5.42H5.42c-2.99,0-5.42,2.43-5.42,5.44,0,1.81.89,3.42,2.29,4.41v21.57s0,0,0,0v18.53c-1.38.91-2.29,2.45-2.29,4.2v5.8h34.02v-5.8c0-1.75-.91-3.29-2.29-4.2Zm-.17,7.54H2.46v-3.34c0-1.33,1-2.41,2.29-2.56h24.51c1.29.15,2.29,1.23,2.29,2.56v3.34ZM4.75,40.72h24.51v13.89H4.75v-13.89h0Zm0-3.81v-17.94h24.51v17.94H4.75ZM31.56,12.29c0,1.4-.98,2.57-2.29,2.87H4.75c-1.31-.3-2.29-1.47-2.29-2.87v-.02c0-1.63,1.32-2.95,2.95-2.95h23.19c1.63,0,2.95,1.32,2.95,2.95v.02Z"/>
      <path class="cls-1" d="m75.59,21.5c-.81-1.29-2.2-2.06-3.72-2.06-.82,0-1.62.23-2.32.67l-27.87,17.53c-1.91.83-3.26,2.73-3.26,4.95v24.34h10.77v-23.62l25-15.76c2.05-1.28,2.67-3.99,1.39-6.04Zm-28.86,42.96h-5.85v-21.88c0-1.61,1.31-2.92,2.92-2.92s2.92,1.31,2.92,2.92v21.88Zm26.16-39.01l-24.1,15.09-2.04-3.27,24.11-15.08c.31-.19.66-.29,1.01-.29.67,0,1.28.34,1.63.9.56.9.29,2.09-.61,2.65Z"/>
      <g>
        <path class="cls-1" d="m41.62,1.84s2.01-2.45,7.15-1.7c5.35.78,8.66,5.44,9.98,8.58,1.31,3.09,2.43,8.93-.31,13.11.28-4.9-1.53-11.33-4.06-14.38-2.03-2.44-6.81-7.7-12.76-5.61Z"/>
        <path class="cls-1" d="m40.92,5.62s1.07-1.72,4.33-1.08c3.39.67,5.79,4.09,6.85,6.38,1.04,2.25,2.17,6.47.76,9.42-.18-3.52-1.78-8.18-3.58-10.43-1.44-1.8-4.81-5.68-8.36-4.3Z"/>
        <path class="cls-1" d="m40.42,8.32s.7-1.06,2.63-.27c2.01.83,3.64,3.43,4.36,5.05.78,1.76,1.23,4.91.56,6.69.02-2.43-1.08-5.97-2.07-7.7-.8-1.39-3.29-4.33-5.47-3.77Z"/>
      </g>
    </g>
  </g>
</svg>