<?xml version="1.0" encoding="UTF-8"?>
<svg id="Capa_2" data-name="Capa 2" xmlns="http://www.w3.org/2000/svg" viewBox="0 0 74.06 77.26">
  <defs>
    <style>
      .cls-1 {
        fill: #414141;
      }
    </style>
  </defs>
  <g id="featurs">
    <g>
      <g>
        <path class="cls-1" d="m39.08,64.76c-13.49,0-24.46-10.97-24.46-24.46s10.97-24.46,24.46-24.46c3.3,0,6.51.65,9.52,1.92.64.27.93,1,.66,1.64-.27.63-1,.93-1.64.66-2.7-1.14-5.58-1.72-8.55-1.72-12.11,0-21.96,9.85-21.96,21.96s9.85,21.96,21.96,21.96,21.96-9.85,21.96-21.96c0-3.69-.93-7.34-2.7-10.55-.33-.6-.11-1.36.49-1.69.61-.33,1.36-.11,1.7.49,1.97,3.58,3.01,7.64,3.01,11.75,0,13.49-10.97,24.46-24.46,24.46Z"/>
        <path class="cls-1" d="m62.29,41.55c-.69,0-1.25-.56-1.25-1.25,0-12.11-9.85-21.96-21.96-21.96-.69,0-1.25-.56-1.25-1.25s.56-1.25,1.25-1.25c13.49,0,24.46,10.97,24.46,24.46,0,.69-.56,1.25-1.25,1.25Z"/>
        <g>
          <path class="cls-1" d="m56.63,56.26c-5.09-1.99-9.73-2.34-17.57-2.34s-12.41.36-17.54,2.33l-.89-2.33c5.49-2.11,10.52-2.49,18.44-2.49s13.02.37,18.48,2.51l-.91,2.33Z"/>
          <path class="cls-1" d="m39.05,29.17c-7.91,0-12.94-.39-18.44-2.49l.89-2.33c5.13,1.97,9.93,2.33,17.54,2.33s12.48-.35,17.57-2.34l.91,2.33c-5.46,2.13-10.31,2.51-18.48,2.51Z"/>
        </g>
        <path class="cls-1" d="m39.08,64.73c-7.49,0-13.36-10.73-13.36-24.43s5.87-24.43,13.36-24.43,13.36,10.73,13.36,24.43-5.87,24.43-13.36,24.43Zm0-46.36c-5.89,0-10.87,10.04-10.87,21.93s4.98,21.93,10.87,21.93,10.87-10.04,10.87-21.93-4.98-21.93-10.87-21.93Z"/>
        <rect class="cls-1" x="15.87" y="39.05" width="46.42" height="2.5"/>
        <rect class="cls-1" x="37.86" y="17.1" width="2.5" height="46.39"/>
      </g>
      <g>
        <path class="cls-1" d="m19.61,77.26c-.15,0-15.19-.52-16.95-16.22l2.48-.28c1.52,13.56,13.99,13.99,14.52,14l-.05,2.5Z"/>
        <path class="cls-1" d="m17.97,71.96c-3.05-.07-9.05-2.12-9.86-9.41l2.48-.28c.77,6.92,7.17,7.19,7.44,7.19l-.06,2.5Z"/>
        <path class="cls-1" d="m17.97,67.54c-1.66-.04-4.91-1.15-5.36-5.09l2.48-.28c.3,2.63,2.5,2.85,2.94,2.87l-.07,2.5Z"/>
      </g>
      <g>
        <path class="cls-1" d="m56.73,75.4l-.28-2.48c13.56-1.52,13.99-13.99,14-14.52l2.5.05c0,.15-.52,15.19-16.22,16.95Z"/>
        <path class="cls-1" d="m58.23,69.96l-.28-2.48c6.92-.77,7.19-7.17,7.19-7.44l2.5.06c-.07,3.05-2.12,9.05-9.41,9.86Z"/>
        <path class="cls-1" d="m58.14,65.46l-.28-2.48c2.63-.3,2.85-2.5,2.87-2.94l2.5.07c-.04,1.66-1.15,4.91-5.09,5.36Z"/>
      </g>
      <g>
        <path class="cls-1" d="m71.58,23.21c-1.52-13.56-13.99-13.99-14.52-14l.05-2.5c.15,0,15.19.52,16.95,16.22l-2.48.28Z"/>
        <path class="cls-1" d="m66.13,21.71c-.77-6.92-7.17-7.19-7.44-7.19l.06-2.5c3.05.07,9.05,2.12,9.86,9.41l-2.48.28Z"/>
        <path class="cls-1" d="m61.63,21.8c-.3-2.63-2.5-2.85-2.94-2.87l.07-2.5c1.66.04,4.91,1.15,5.36,5.09l-2.48.28Z"/>
      </g>
      <g>
        <path class="cls-1" d="m15.67,20.55c-1.36,0-2.64-.53-3.59-1.5-.94-.96-1.46-2.23-1.44-3.57.01-1.35.55-2.6,1.5-3.55.95-.93,2.2-1.44,3.53-1.44s2.64.53,3.59,1.5c.94.96,1.45,2.23,1.44,3.57-.01,1.34-.55,2.6-1.5,3.55-.95.93-2.2,1.44-3.53,1.44Zm0-7.57c-.67,0-1.3.26-1.78.73-.48.47-.75,1.11-.76,1.79,0,.68.25,1.32.73,1.8.48.49,1.12.76,1.81.76s1.3-.26,1.78-.73c.48-.48.75-1.11.76-1.79,0-.68-.25-1.32-.73-1.8-.48-.49-1.12-.76-1.81-.76Z"/>
        <rect class="cls-1" x="10.77" y="17.83" width="2.58" height="2.5" transform="translate(-9.91 13.92) rotate(-44.5)"/>
        <path class="cls-1" d="m6.55,31.04h-.01c-.33,0-.65-.14-.88-.37L.36,25.26c-.48-.49-.48-1.28.02-1.77l7.23-7.11c.23-.23.55-.36.88-.36h.01c.33,0,.65.14.88.37l5.31,5.4c.23.24.36.56.36.89,0,.33-.14.65-.37.88l-7.24,7.11c-.23.23-.55.36-.88.36Zm-3.54-6.63l3.56,3.62,5.46-5.36-3.56-3.62-5.45,5.36Z"/>
        <rect class="cls-1" x="18" y="10.71" width="2.58" height="2.5" transform="translate(-2.85 16.95) rotate(-44.5)"/>
        <path class="cls-1" d="m22.86,15.01c-.32,0-.65-.12-.89-.37l-5.31-5.4c-.23-.24-.36-.55-.36-.89,0-.33.14-.65.37-.88L23.92.36c.49-.48,1.28-.48,1.77.02l5.31,5.4c.23.24.36.55.36.89,0,.33-.14.65-.37.88l-7.23,7.11c-.24.24-.56.36-.88.36Zm-3.54-6.63l3.56,3.62,5.45-5.36-3.56-3.62-5.45,5.36Z"/>
      </g>
    </g>
  </g>
</svg>