<?xml version="1.0" encoding="UTF-8"?>
<svg id="Capa_2" xmlns="http://www.w3.org/2000/svg" version="1.1" viewBox="0 0 76.2 66.9">
  <!-- Generator: Adobe Illustrator 29.2.1, SVG Export Plug-In . SVG Version: 2.1.0 Build 116)  -->
  <defs>
    <style>
      .st0 {
        fill: #414141;
      }
    </style>
  </defs>
  <path class="st0" d="M68.9,12.1l-5.2,5.2c-.2.2-.3.5-.3.8v4.1c-.2,0-.4,0-.6,0-1.3,0-2.3,1-2.3,2.3v8.1c0,1.6,1.4,2.5,2.9,2.3,0,0,0,14.5,0,14.5-.1,5.3-8,5.4-8.1,0,0,0,0-23.3,0-23.3,0-4.6-3.4-8.3-7.8-8.9v-8.9c1.4.1,2.6-.9,2.6-2.3,0,0,0-2.3,0-2.3,0-1.3-1-2.3-2.3-2.3H8.2c-1.3,0-2.3,1-2.3,2.3v2.3c0,1.4,1.2,2.4,2.6,2.3,0,0,0,51,0,51-1.4-.1-2.6.9-2.6,2.3,0,0,0,2.3,0,2.3,0,1.3,1,2.3,2.3,2.3h39.4c1.3,0,2.3-1,2.3-2.3v-2.3c0-1.4-1.2-2.4-2.6-2.3,0,0,0-27,0-27h5.5v17.1c.3,8.4,12.5,8.4,12.8,0,0,0,0-14.5,0-14.5,1.5.2,2.9-.7,2.9-2.3,0,0,0-4.6,0-4.6,0-2.1-1.2-4-2.9-5v-4.4l4.9-4.9c1.1-1.1-.6-2.7-1.6-1.6ZM47.6,64H8.2v-2.3h5.2c1.5,0,1.5-2.3,0-2.3,0,0-2.6,0-2.6,0V7.1c0-.6-.5-1.2-1.2-1.2h-1.5v-2.3h39.4v2.3h-7.5c-.6,0-1.2.5-1.2,1.2s.5,1.2,1.2,1.2h4.9v52.2c0,.6.5,1.2,1.2,1.2h1.5v2.3h0ZM47.3,30v-10.5c3.1.6,5.5,3.3,5.5,6.6v3.9h-5.5ZM66.2,32.7h-3.5v-8.1c1.9,0,3.5,1.5,3.5,3.5v4.6h0Z"/>
  <path class="st0" d="M38.4,12.9h-20.9c-1.3,0-2.3,1-2.3,2.3v9.3c0,1.3,1,2.3,2.3,2.3h20.9c1.3,0,2.3-1,2.3-2.3v-9.3c0-1.3-1-2.3-2.3-2.3ZM17.5,24.5v-9.3h20.9v9.3s-20.9,0-20.9,0Z"/>
  <path class="st0" d="M27,37.1c-.7.8-4.1,5-4.1,7.4.2,6.5,9.7,6.6,9.9,0,0-2.4-3.4-6.6-4.1-7.4-.4-.5-1.3-.5-1.8,0ZM27.9,47.2c-1.5,0-2.6-1.2-2.6-2.6s1.2-2.9,2.6-4.8c1.4,1.8,2.6,3.9,2.6,4.8,0,1.5-1.2,2.6-2.6,2.6Z"/>
  <path class="st0" d="M27.9,30.3c-7,0-12.8,5.7-12.8,12.8.7,16.9,24.8,16.9,25.5,0,0-7-5.7-12.8-12.8-12.8ZM27.9,53.5c-5.8,0-10.4-4.7-10.4-10.4.6-13.9,20.3-13.8,20.9,0,0,5.8-4.7,10.4-10.4,10.4Z"/>
</svg>