<?xml version="1.0" encoding="UTF-8"?>
<svg id="Capa_2" data-name="Capa 2" xmlns="http://www.w3.org/2000/svg" viewBox="0 0 103.16 66.31">
  <defs>
    <style>
      .cls-1 {
        fill: #ffc629;
      }
    </style>
  </defs>
  <g id="featurs">
    <g>
      <path class="cls-1" d="m36.19,38.57c-.59-.03-1.11-.16-1.54-.27-.44-.11-.86-.23-1.29-.43l.02-2.38c.74.28,1.05.37,1.81.55.85.19,1.44.25,2.01.25,1.01,0,1.81-.27,2.42-.82.61-.55.91-1.25.91-2.1,0-.53-.09-1-.26-1.42-.18-.41-.42-.74-.72-1-.3-.25-1-.63-2.08-1.14l-1.52-.71c-1.29-.6-2.19-1.31-2.7-2.14-.51-.82-.77-1.82-.77-2.98s.38-2.23,1.13-3.12c.75-.88,1.51-1.26,2.57-1.57v-2.16h2.47v2.03c1.16.03,2.08.4,2.75.79v2.4c-.34-.25-.87-.49-1.57-.72-.7-.23-1.36-.35-1.96-.35-.88,0-1.57.25-2.07.75-.5.5-.75,1.14-.75,1.92,0,.48.09.92.27,1.31.18.4.44.73.77,1.01.34.28.99.64,1.96,1.11l1.19.55c1.34.63,2.32,1.39,2.94,2.3.62.91.93,2.07.93,3.48,0,1.17-.41,2.19-1.24,3.07-.83.88-1.71,1.37-3.18,1.62v2.19h-2.49v-2.02Z"/>
      <path class="cls-1" d="m36.15,66.31H0v-1.02c0-4.06,3.3-7.35,7.36-7.35h21.44c4.06,0,7.35,3.3,7.35,7.35v1.02Zm-34.02-2.04h31.88c-.48-2.45-2.63-4.3-5.22-4.3H7.36c-2.58,0-4.74,1.85-5.22,4.3Z"/>
      <path class="cls-1" d="m30.95,59.97H5.2V15.33c0-1.5,1.22-2.72,2.72-2.72h20.32c1.5,0,2.72,1.22,2.72,2.72v44.65Zm-23.72-2.04h21.68V15.33c0-.37-.3-.68-.68-.68H7.92c-.37,0-.68.3-.68.68v42.61Z"/>
      <path class="cls-1" d="m26.81,28.84H9.34v-10.86h17.47v10.86Zm-15.43-2.04h13.39v-6.79h-13.39v6.79Z"/>
      <rect class="cls-1" x="9.63" y="31.07" width="1.46" height="2.04"/>
      <rect class="cls-1" x="13.49" y="31.07" width="1.46" height="2.04"/>
      <rect class="cls-1" x="17.35" y="31.07" width="1.46" height="2.04"/>
      <rect class="cls-1" x="21.2" y="31.07" width="1.46" height="2.04"/>
      <rect class="cls-1" x="25.06" y="31.07" width="1.46" height="2.04"/>
      <path class="cls-1" d="m52.67,66.31h-17.53c-.56,0-1.02-.46-1.02-1.02s.46-1.02,1.02-1.02h17.53c2.68,0,4.85-2.18,4.85-4.85v-6.39c0-.56.46-1.02,1.02-1.02s1.02.46,1.02,1.02v6.39c0,3.8-3.09,6.89-6.89,6.89Z"/>
      <path class="cls-1" d="m75.59,53.7h-36.15v-1.02c0-4.06,3.3-7.35,7.36-7.35h21.44c4.06,0,7.36,3.3,7.36,7.35v1.02Zm-34.02-2.04h31.88c-.48-2.45-2.63-4.3-5.22-4.3h-21.44c-2.58,0-4.74,1.85-5.22,4.3Z"/>
      <path class="cls-1" d="m70.39,47.36h-25.76V2.72c0-1.5,1.22-2.72,2.72-2.72h20.32c1.5,0,2.72,1.22,2.72,2.72v44.65Zm-23.72-2.04h21.68V2.72c0-.37-.3-.68-.68-.68h-20.32c-.37,0-.68.3-.68.68v42.61Z"/>
      <path class="cls-1" d="m66.25,26.07h-17.47V5.36h17.47v20.7Zm-15.43-2.04h13.39V7.4h-13.39v16.63Z"/>
      <path class="cls-1" d="m17.95,14.35c-.56,0-1.02-.46-1.02-1.02v-2.79c0-3.8,3.09-6.89,6.89-6.89h20.84c.56,0,1.02.46,1.02,1.02s-.46,1.02-1.02,1.02h-20.84c-2.68,0-4.86,2.18-4.86,4.85v2.79c0,.56-.46,1.02-1.02,1.02Z"/>
      <path class="cls-1" d="m70.43,27.97c-.46,0-.87-.31-.99-.77-.14-.55.2-1.1.74-1.24l30.21-7.56c.25-.06.45-.22.59-.44.13-.22.17-.48.11-.72s-.22-.45-.44-.59c-.22-.13-.48-.17-.72-.11l-30.21,7.56c-.55.14-1.1-.2-1.24-.74s.2-1.1.74-1.24l30.21-7.56c.78-.19,1.58-.07,2.27.34.69.41,1.17,1.07,1.37,1.84.19.77.07,1.58-.34,2.27-.41.69-1.07,1.17-1.84,1.37l-30.21,7.56c-.08.02-.17.03-.25.03Z"/>
    </g>
  </g>
</svg>