<?xml version="1.0" encoding="UTF-8"?>
<svg id="Capa_2" data-name="Capa 2" xmlns="http://www.w3.org/2000/svg" viewBox="0 0 278.23 81.65">
  <defs>
    <style>
      .cls-1 {
        fill: #fff;
      }

      .cls-2 {
        fill: #ffc629;
      }
    </style>
  </defs>
  <g id="featurs">
    <g>
      <g>
        <path class="cls-1" d="m111.95,64.56h11.54v2.21h-9.24v4.85h9.01v2.19h-9.01v5.51h9.33v2.12h-11.63v-16.87Z"/>
        <path class="cls-1" d="m126.79,64.56h3l5.69,13.63,5.71-13.63h2.96v16.87h-2.25v-13.02l-5.51,13.02h-1.91l-5.49-13v13h-2.21v-16.87Z"/>
        <path class="cls-1" d="m147.52,64.56h7.58c4.26,0,5.96,1.75,5.96,5.21s-1.66,5.55-6.03,5.55h-5.26v6.1h-2.25v-16.87Zm7.58,8.63c2.41,0,3.66-.86,3.66-3.3s-1.21-3.19-3.71-3.19h-5.28v6.49h5.33Z"/>
        <path class="cls-1" d="m170.42,74.94h-4.71v6.49h-2.25v-16.87h7.51c4.28,0,5.92,1.8,5.92,5.1,0,2.73-1.16,4.6-4.07,5.12l3.82,6.65h-2.46l-3.76-6.49Zm.52-2.12c2.3,0,3.62-.66,3.62-3.07s-1.27-3.05-3.69-3.05h-5.17v6.12h5.24Z"/>
        <path class="cls-1" d="m179.67,64.56h11.54v2.21h-9.24v4.85h9.01v2.19h-9.01v5.51h9.33v2.12h-11.63v-16.87Z"/>
        <path class="cls-1" d="m192.62,79.65l1.16-1.78c1.96,1.27,3.98,1.75,6.03,1.75,3.44,0,4.73-.89,4.73-2.94s-1.84-2.44-4.76-2.91c-3.87-.64-6.28-1.3-6.28-4.8s2.12-4.69,6.33-4.69c2.85,0,4.8.66,6.15,1.55l-1.25,1.89c-1.16-.77-3-1.32-4.89-1.32-2.91,0-4.05.75-4.05,2.53,0,1.91,1.66,2.28,4.58,2.78,3.78.64,6.46,1.21,6.46,4.87,0,3.37-2.07,5.08-6.94,5.08-2.75,0-5.17-.59-7.26-2Z"/>
        <path class="cls-1" d="m214.15,64.44h2.34l6.76,16.98h-2.37l-1.39-3.55h-8.42l-1.39,3.55h-2.3l6.76-16.98Zm4.53,11.31l-3.41-8.56-3.41,8.56h6.83Z"/>
        <path class="cls-1" d="m224.01,79.65l1.16-1.78c1.96,1.27,3.98,1.75,6.03,1.75,3.44,0,4.73-.89,4.73-2.94s-1.84-2.44-4.76-2.91c-3.87-.64-6.28-1.3-6.28-4.8s2.12-4.69,6.33-4.69c2.85,0,4.8.66,6.15,1.55l-1.25,1.89c-1.16-.77-3-1.32-4.89-1.32-2.91,0-4.05.75-4.05,2.53,0,1.91,1.66,2.28,4.58,2.78,3.78.64,6.46,1.21,6.46,4.87,0,3.37-2.07,5.08-6.94,5.08-2.75,0-5.17-.59-7.26-2Z"/>
      </g>
      <path class="cls-1" d="m235.45,11.49c.91-.06,1.83.05,2.72.34.94.31,1.86.82,2.72,1.53.91.77,1.76,1.77,2.5,3.03.79,1.34,1.45,2.95,1.92,4.83.51,2,.77,4.14.79,6.36.01,2.31-.25,4.65-.76,6.93-.51,2.33-1.29,4.53-2.27,6.52-.99,1.99-2.16,3.71-3.48,5.09.9-1.76,1.67-3.69,2.29-5.75.61-2.03,1.06-4.15,1.34-6.29.27-2.09.38-4.18.31-6.22-.06-1.95-.29-3.84-.67-5.62-.35-1.69-.84-3.18-1.41-4.48-.54-1.23-1.16-2.28-1.84-3.16-.64-.83-1.33-1.5-2.05-2.03-.69-.5-1.4-.86-2.12-1.09"/>
      <path class="cls-1" d="m239.36,6.17c1.31-.26,2.64-.33,3.98-.17,1.44.17,2.89.59,4.3,1.3,1.53.77,3.02,1.87,4.4,3.34,1.51,1.61,2.88,3.65,3.99,6.14,1.22,2.72,2.04,5.73,2.44,8.94.42,3.42.35,6.96-.21,10.44-.58,3.6-1.67,7.02-3.21,10.07-1.52,3.05-3.44,5.63-5.65,7.6,1.4-2.66,2.53-5.64,3.36-8.81.81-3.11,1.32-6.35,1.5-9.61.17-3.12.04-6.2-.38-9.15-.4-2.77-1.05-5.39-1.94-7.78-.82-2.22-1.8-4.13-2.89-5.72-1-1.48-2.1-2.7-3.24-3.66-1.06-.9-2.17-1.58-3.28-2.07-1.05-.45-2.1-.73-3.16-.85"/>
      <path class="cls-1" d="m244.19.95c1.76-.53,3.59-.85,5.47-.93,2.07-.09,4.2.12,6.36.65,2.39.6,4.82,1.61,7.16,3.11,2.63,1.68,5.18,3.96,7.45,6.92,2.55,3.32,4.53,7.19,5.84,11.47,1.43,4.67,2,9.64,1.65,14.63-.36,5.23-1.71,10.22-3.98,14.65-2.25,4.42-5.3,8.05-8.93,10.68,2.04-3.8,3.57-8.1,4.51-12.72.91-4.48,1.24-9.12,1-13.73-.23-4.34-.98-8.53-2.19-12.45-1.11-3.61-2.6-6.91-4.4-9.83-1.64-2.65-3.44-4.83-5.33-6.58-1.72-1.59-3.49-2.83-5.28-3.75-1.63-.84-3.28-1.41-4.9-1.75-1.5-.32-2.98-.43-4.43-.37"/>
      <polygon class="cls-1" points="0 8.78 0 14.68 15.76 14.68 15.76 56.43 22.28 56.43 22.28 14.68 38.1 14.68 38.1 8.78 0 8.78"/>
      <polygon class="cls-1" points="46.68 50.53 46.68 34.79 71.96 34.79 71.96 28.89 46.68 28.89 46.68 14.68 73.68 14.68 73.68 8.78 40.15 8.78 40.15 56.43 74 56.43 74 50.53 46.68 50.53"/>
      <polygon class="cls-1" points="84.35 50.53 84.35 8.78 77.83 8.78 77.83 56.43 109.76 56.43 109.76 50.53 84.35 50.53"/>
      <polygon class="cls-1" points="118.47 50.53 118.47 34.79 143.75 34.79 143.75 28.89 118.47 28.89 118.47 14.68 145.47 14.68 145.47 8.78 111.95 8.78 111.95 56.43 145.78 56.43 145.78 50.53 118.47 50.53"/>
      <g>
        <polygon class="cls-2" points="180.8 8.71 162.18 42.27 162.05 42.27 159.31 8.71 148.56 8.71 152.78 56.44 164.6 56.44 191.61 8.71 180.8 8.71"/>
        <polygon class="cls-2" points="198.28 .14 193.15 6.7 203.63 6.7 208.75 .14 198.28 .14"/>
        <path class="cls-2" d="m221.33,20.47h.14l1.9,17.52h-12.35l10.31-17.52Zm-2.44-11.77l-25.37,41.46,9.72-41.46h-10.48l-11.19,47.73h18.65l6.23-10.63h17.82l1.11,10.63h10.87s-6.62-47.73-6.62-47.73h-10.75Z"/>
      </g>
    </g>
  </g>
</svg>